{"title":"UFC.184.Molly.Holm.vs.Raquel.Pennington.WEBRip.P2P4FREE","uid":11728564,"size":667827379,"categoryP":"video","categoryS":"tv_shows","magnet":"?xt=urn:btih:1866459b320ead835220387cfef166ca600256d2&amp;dn=UFC.184.Molly.Holm.vs.Raquel.Pennington.WEBRip.P2P4FREE&amp;tr=udp%3A%2F%2Ftracker.openbittorrent.com%3A80&amp;tr=udp%3A%2F%2Fopen.demonii.com%3A1337&amp;tr=udp%3A%2F%2Ftracker.coppersurfer.tk%3A6969&amp;tr=udp%3A%2F%2Fexodus.desync.com%3A6969","seeders":1,"leechers":0,"uploader":"P2P4FREE","files":1,"time":1425188785,"description":"General\n----------------------------------------\nComplete name                            : UFC.184.Molly.Holm.vs.Raquel.Pennington.WEBRip.P2P4FREE.mkv\nFormat                                   : Matroska\nFormat version                           : Version 2\nFile size                                : 637 MiB\nDuration                                 : 22mn 13s\nOverall bit rate mode                    : Variable\nOverall bit rate                         : 4 005 Kbps\nWriting application                      : Lavf54.20.4\nWriting library                          : Lavf54.20.4\n\nVideo\nID                                       : 1\nFormat                                   : AVC\nFormat/Info                              : Advanced Video Codec\nFormat profile                           : &lt;a class=&quot;__cf_email__&quot; href=&quot;/cdn-cgi/l/email-protection&quot; data-cfemail=&quot;9bd3f2fcf3dbd7a8b5a9&quot;&gt;[email&amp;#160;protected]&lt;/a&gt;&lt;script cf-hash='f9e31' type=&quot;text/javascript&quot;&gt;\n/* &lt;![CDATA[ */!function(){try{var t=&quot;currentScript&quot;in document?document.currentScript:function(){for(var t=document.getElementsByTagName(&quot;script&quot;),e=t.length;e--;)if(t[e].getAttribute(&quot;cf-hash&quot;))return t[e]}();if(t&amp;&amp;t.previousSibling){var e,r,n,i,c=t.previousSibling,a=c.getAttribute(&quot;data-cfemail&quot;);if(a){for(e=&quot;&quot;,r=parseInt(a.substr(0,2),16),n=2;a.length-n;n+=2)i=parseInt(a.substr(n,2),16)^r,e+=String.fromCharCode(i);e=document.createTextNode(e),c.parentNode.replaceChild(e,c)}}}catch(u){}}();/* ]]&gt; */&lt;/script&gt;\nFormat settings, CABAC                   : Yes\nFormat settings, ReFrames                : 4 frames\nCodec ID                                 : V_MPEG4/ISO/AVC\nDuration                                 : 22mn 13s\nBit rate                                 : 3 794 Kbps\nWidth                                    : 1 366 pixels\nHeight                                   : 768 pixels\nDisplay aspect ratio                     : 16:9\nFrame rate mode                          : Constant\nFrame rate                               : 30.000 fps\nColor space                              : YUV\nChroma subsampling                       : 4:2:0\nBit depth                                : 8 bits\nScan type                                : Progressive\nBits/(Pixel*Frame)                       : 0.121\nStream size                              : 603 MiB (95%)\nWriting library                          : x264 core 142 r2491 24e4fed\n\n\nAudio\n----------------------------------------\nID                                       : 2\nFormat                                   : Vorbis\nFormat settings, Floor                   : 1\nCodec ID                                 : A_VORBIS\nDuration                                 : 22mn 13s\nBit rate mode                            : Variable\nBit rate                                 : 131 Kbps\nChannel(s)                               : 2 channels\nSampling rate                            : 44.1 KHz\nCompression mode                         : Lossy\nDelay relative to video                  : 1ms\nStream size                              : 20.8 MiB (3%)\nWriting library                          : aoTuV 20110424 (UTC 2011-04-24)\nDefault                                  : Yes\nForced                                   : No\nWriting application                      : Lavc54.35.0","torrent":{"xt":"urn:btih:1866459b320ead835220387cfef166ca600256d2","amp;dn":"UFC.184.Molly.Holm.vs.Raquel.Pennington.WEBRip.P2P4FREE","amp;tr":["udp%3A%2F%2Ftracker.openbittorrent.com%3A80","udp%3A%2F%2Fopen.demonii.com%3A1337","udp%3A%2F%2Ftracker.coppersurfer.tk%3A6969","udp%3A%2F%2Fexodus.desync.com%3A6969"],"infoHash":"1866459b320ead835220387cfef166ca600256d2","infoHashBuffer":{"type":"Buffer","data":[24,102,69,155,50,14,173,131,82,32,56,124,254,241,102,202,96,2,86,210]},"announce":[],"urlList":[]}}